G04 #@! TF.GenerationSoftware,KiCad,Pcbnew,(5.1.8)-1*
G04 #@! TF.CreationDate,2021-06-12T10:48:47-06:00*
G04 #@! TF.ProjectId,Single Chip,53696e67-6c65-4204-9368-69702e6b6963,rev?*
G04 #@! TF.SameCoordinates,Original*
G04 #@! TF.FileFunction,Copper,L2,Bot*
G04 #@! TF.FilePolarity,Positive*
%FSLAX46Y46*%
G04 Gerber Fmt 4.6, Leading zero omitted, Abs format (unit mm)*
G04 Created by KiCad (PCBNEW (5.1.8)-1) date 2021-06-12 10:48:47*
%MOMM*%
%LPD*%
G01*
G04 APERTURE LIST*
G04 #@! TA.AperFunction,ComponentPad*
%ADD10O,1.700000X1.700000*%
G04 #@! TD*
G04 #@! TA.AperFunction,ComponentPad*
%ADD11R,1.700000X1.700000*%
G04 #@! TD*
G04 #@! TA.AperFunction,ComponentPad*
%ADD12R,1.600000X1.600000*%
G04 #@! TD*
G04 #@! TA.AperFunction,ComponentPad*
%ADD13O,1.600000X1.600000*%
G04 #@! TD*
G04 #@! TA.AperFunction,ViaPad*
%ADD14C,0.800000*%
G04 #@! TD*
G04 #@! TA.AperFunction,Conductor*
%ADD15C,0.250000*%
G04 #@! TD*
G04 APERTURE END LIST*
D10*
X128778000Y-86106000D03*
D11*
X128778000Y-88646000D03*
D10*
X172720000Y-97536000D03*
X172720000Y-94996000D03*
X170180000Y-97536000D03*
X170180000Y-94996000D03*
X167640000Y-97536000D03*
X167640000Y-94996000D03*
X165100000Y-97536000D03*
X165100000Y-94996000D03*
X162560000Y-97536000D03*
X162560000Y-94996000D03*
X160020000Y-97536000D03*
X160020000Y-94996000D03*
X157480000Y-97536000D03*
X157480000Y-94996000D03*
X154940000Y-97536000D03*
X154940000Y-94996000D03*
X152400000Y-97536000D03*
X152400000Y-94996000D03*
X149860000Y-97536000D03*
X149860000Y-94996000D03*
X147320000Y-97536000D03*
X147320000Y-94996000D03*
X144780000Y-97536000D03*
X144780000Y-94996000D03*
X142240000Y-97536000D03*
X142240000Y-94996000D03*
X139700000Y-97536000D03*
X139700000Y-94996000D03*
X137160000Y-97536000D03*
X137160000Y-94996000D03*
X134620000Y-97536000D03*
X134620000Y-94996000D03*
X132080000Y-97536000D03*
X132080000Y-94996000D03*
X129540000Y-97536000D03*
X129540000Y-94996000D03*
X127000000Y-97536000D03*
X127000000Y-94996000D03*
X124460000Y-97536000D03*
D11*
X124460000Y-94996000D03*
D12*
X124460000Y-80264000D03*
D13*
X172720000Y-65024000D03*
X127000000Y-80264000D03*
X170180000Y-65024000D03*
X129540000Y-80264000D03*
X167640000Y-65024000D03*
X132080000Y-80264000D03*
X165100000Y-65024000D03*
X134620000Y-80264000D03*
X162560000Y-65024000D03*
X137160000Y-80264000D03*
X160020000Y-65024000D03*
X139700000Y-80264000D03*
X157480000Y-65024000D03*
X142240000Y-80264000D03*
X154940000Y-65024000D03*
X144780000Y-80264000D03*
X152400000Y-65024000D03*
X147320000Y-80264000D03*
X149860000Y-65024000D03*
X149860000Y-80264000D03*
X147320000Y-65024000D03*
X152400000Y-80264000D03*
X144780000Y-65024000D03*
X154940000Y-80264000D03*
X142240000Y-65024000D03*
X157480000Y-80264000D03*
X139700000Y-65024000D03*
X160020000Y-80264000D03*
X137160000Y-65024000D03*
X162560000Y-80264000D03*
X134620000Y-65024000D03*
X165100000Y-80264000D03*
X132080000Y-65024000D03*
X167640000Y-80264000D03*
X129540000Y-65024000D03*
X170180000Y-80264000D03*
X127000000Y-65024000D03*
X172720000Y-80264000D03*
X124460000Y-65024000D03*
D14*
X147320000Y-76200000D03*
X166370000Y-77851000D03*
X161290000Y-77851000D03*
X125730000Y-68326000D03*
X163830000Y-67564000D03*
X158750000Y-77851000D03*
X158750000Y-74803000D03*
D15*
X172720000Y-77724000D02*
X172720000Y-80264000D01*
X171196000Y-76200000D02*
X172720000Y-77724000D01*
X124460000Y-80264000D02*
X124460000Y-77724000D01*
X124460000Y-77724000D02*
X125984000Y-76200000D01*
X167640000Y-76200000D02*
X171196000Y-76200000D01*
X167640000Y-65024000D02*
X167640000Y-76200000D01*
X165100000Y-80264000D02*
X165100000Y-76200000D01*
X165100000Y-76200000D02*
X167640000Y-76200000D01*
X147320000Y-76200000D02*
X165100000Y-76200000D01*
X125984000Y-76200000D02*
X135890000Y-76200000D01*
X135890000Y-76200000D02*
X147320000Y-76200000D01*
X124460000Y-80264000D02*
X124460000Y-85090000D01*
X125476000Y-86106000D02*
X128778000Y-86106000D01*
X124460000Y-85090000D02*
X125476000Y-86106000D01*
X135890000Y-91186000D02*
X135890000Y-76200000D01*
X134620000Y-92456000D02*
X135890000Y-91186000D01*
X134620000Y-94996000D02*
X134620000Y-92456000D01*
X168910000Y-86106000D02*
X166370000Y-83566000D01*
X166370000Y-83566000D02*
X166370000Y-77851000D01*
X167640000Y-97536000D02*
X168910000Y-96266000D01*
X168910000Y-96266000D02*
X168910000Y-86106000D01*
X166370000Y-77851000D02*
X166370000Y-77724000D01*
X161290000Y-96266000D02*
X161290000Y-77851000D01*
X162560000Y-97536000D02*
X161290000Y-96266000D01*
X161290000Y-77851000D02*
X161290000Y-77724000D01*
X125730000Y-68326000D02*
X141478000Y-68326000D01*
X142240000Y-67564000D02*
X142240000Y-65024000D01*
X141478000Y-68326000D02*
X142240000Y-67564000D01*
X142240000Y-67564000D02*
X163830000Y-67564000D01*
X129540000Y-92456000D02*
X129540000Y-94996000D01*
X131064000Y-90932000D02*
X129540000Y-92456000D01*
X131064000Y-83693000D02*
X131064000Y-90932000D01*
X129540000Y-82169000D02*
X131064000Y-83693000D01*
X129540000Y-80264000D02*
X129540000Y-82169000D01*
X132080000Y-80264000D02*
X132080000Y-94996000D01*
X157480000Y-97536000D02*
X158750000Y-96266000D01*
X158750000Y-96266000D02*
X158750000Y-77851000D01*
X165100000Y-65024000D02*
X165100000Y-68453000D01*
X165100000Y-68453000D02*
X158750000Y-74803000D01*
X171450000Y-96266000D02*
X170180000Y-97536000D01*
X171450000Y-85598000D02*
X171450000Y-96266000D01*
X167640000Y-80264000D02*
X167640000Y-81788000D01*
X167640000Y-81788000D02*
X171450000Y-85598000D01*
M02*
