M48
; DRILL file {KiCad (5.1.8)-1} date 06/12/21 10:48:50
; FORMAT={-:-/ absolute / inch / decimal}
; #@! TF.CreationDate,2021-06-12T10:48:50-06:00
; #@! TF.GenerationSoftware,Kicad,Pcbnew,(5.1.8)-1
; #@! TF.FileFunction,Plated,1,2,PTH
FMAT,2
INCH
T1C0.0157
T2C0.0315
T3C0.0394
%
G90
G05
T1
X4.95Y-2.69
X5.8Y-3.0
X6.25Y-2.945
X6.25Y-3.065
X6.35Y-3.065
X6.45Y-2.66
X6.55Y-3.065
T2
X4.9Y-2.56
X4.9Y-3.16
X5.0Y-2.56
X5.0Y-3.16
X5.1Y-2.56
X5.1Y-3.16
X5.2Y-2.56
X5.2Y-3.16
X5.3Y-2.56
X5.3Y-3.16
X5.4Y-2.56
X5.4Y-3.16
X5.5Y-2.56
X5.5Y-3.16
X5.6Y-2.56
X5.6Y-3.16
X5.7Y-2.56
X5.7Y-3.16
X5.8Y-2.56
X5.8Y-3.16
X5.9Y-2.56
X5.9Y-3.16
X6.0Y-2.56
X6.0Y-3.16
X6.1Y-2.56
X6.1Y-3.16
X6.2Y-2.56
X6.2Y-3.16
X6.3Y-2.56
X6.3Y-3.16
X6.4Y-2.56
X6.4Y-3.16
X6.5Y-2.56
X6.5Y-3.16
X6.6Y-2.56
X6.6Y-3.16
X6.7Y-2.56
X6.7Y-3.16
X6.8Y-2.56
X6.8Y-3.16
T3
X5.07Y-3.39
X5.07Y-3.49
X4.9Y-3.74
X4.9Y-3.84
X5.0Y-3.74
X5.0Y-3.84
X5.1Y-3.74
X5.1Y-3.84
X5.2Y-3.74
X5.2Y-3.84
X5.3Y-3.74
X5.3Y-3.84
X5.4Y-3.74
X5.4Y-3.84
X5.5Y-3.74
X5.5Y-3.84
X5.6Y-3.74
X5.6Y-3.84
X5.7Y-3.74
X5.7Y-3.84
X5.8Y-3.74
X5.8Y-3.84
X5.9Y-3.74
X5.9Y-3.84
X6.0Y-3.74
X6.0Y-3.84
X6.1Y-3.74
X6.1Y-3.84
X6.2Y-3.74
X6.2Y-3.84
X6.3Y-3.74
X6.3Y-3.84
X6.4Y-3.74
X6.4Y-3.84
X6.5Y-3.74
X6.5Y-3.84
X6.6Y-3.74
X6.6Y-3.84
X6.7Y-3.74
X6.7Y-3.84
X6.8Y-3.74
X6.8Y-3.84
T0
M30
