G04 #@! TF.GenerationSoftware,KiCad,Pcbnew,(5.1.8)-1*
G04 #@! TF.CreationDate,2021-06-12T10:48:47-06:00*
G04 #@! TF.ProjectId,Single Chip,53696e67-6c65-4204-9368-69702e6b6963,rev?*
G04 #@! TF.SameCoordinates,Original*
G04 #@! TF.FileFunction,Soldermask,Top*
G04 #@! TF.FilePolarity,Negative*
%FSLAX46Y46*%
G04 Gerber Fmt 4.6, Leading zero omitted, Abs format (unit mm)*
G04 Created by KiCad (PCBNEW (5.1.8)-1) date 2021-06-12 10:48:47*
%MOMM*%
%LPD*%
G01*
G04 APERTURE LIST*
%ADD10O,1.802000X1.802000*%
%ADD11O,1.702000X1.702000*%
G04 APERTURE END LIST*
D10*
X128778000Y-86106000D03*
G36*
G01*
X129679000Y-87796000D02*
X129679000Y-89496000D01*
G75*
G02*
X129628000Y-89547000I-51000J0D01*
G01*
X127928000Y-89547000D01*
G75*
G02*
X127877000Y-89496000I0J51000D01*
G01*
X127877000Y-87796000D01*
G75*
G02*
X127928000Y-87745000I51000J0D01*
G01*
X129628000Y-87745000D01*
G75*
G02*
X129679000Y-87796000I0J-51000D01*
G01*
G37*
X172720000Y-97536000D03*
X172720000Y-94996000D03*
X170180000Y-97536000D03*
X170180000Y-94996000D03*
X167640000Y-97536000D03*
X167640000Y-94996000D03*
X165100000Y-97536000D03*
X165100000Y-94996000D03*
X162560000Y-97536000D03*
X162560000Y-94996000D03*
X160020000Y-97536000D03*
X160020000Y-94996000D03*
X157480000Y-97536000D03*
X157480000Y-94996000D03*
X154940000Y-97536000D03*
X154940000Y-94996000D03*
X152400000Y-97536000D03*
X152400000Y-94996000D03*
X149860000Y-97536000D03*
X149860000Y-94996000D03*
X147320000Y-97536000D03*
X147320000Y-94996000D03*
X144780000Y-97536000D03*
X144780000Y-94996000D03*
X142240000Y-97536000D03*
X142240000Y-94996000D03*
X139700000Y-97536000D03*
X139700000Y-94996000D03*
X137160000Y-97536000D03*
X137160000Y-94996000D03*
X134620000Y-97536000D03*
X134620000Y-94996000D03*
X132080000Y-97536000D03*
X132080000Y-94996000D03*
X129540000Y-97536000D03*
X129540000Y-94996000D03*
X127000000Y-97536000D03*
X127000000Y-94996000D03*
X124460000Y-97536000D03*
G36*
G01*
X123610000Y-94095000D02*
X125310000Y-94095000D01*
G75*
G02*
X125361000Y-94146000I0J-51000D01*
G01*
X125361000Y-95846000D01*
G75*
G02*
X125310000Y-95897000I-51000J0D01*
G01*
X123610000Y-95897000D01*
G75*
G02*
X123559000Y-95846000I0J51000D01*
G01*
X123559000Y-94146000D01*
G75*
G02*
X123610000Y-94095000I51000J0D01*
G01*
G37*
G36*
G01*
X125260000Y-81115000D02*
X123660000Y-81115000D01*
G75*
G02*
X123609000Y-81064000I0J51000D01*
G01*
X123609000Y-79464000D01*
G75*
G02*
X123660000Y-79413000I51000J0D01*
G01*
X125260000Y-79413000D01*
G75*
G02*
X125311000Y-79464000I0J-51000D01*
G01*
X125311000Y-81064000D01*
G75*
G02*
X125260000Y-81115000I-51000J0D01*
G01*
G37*
D11*
X172720000Y-65024000D03*
X127000000Y-80264000D03*
X170180000Y-65024000D03*
X129540000Y-80264000D03*
X167640000Y-65024000D03*
X132080000Y-80264000D03*
X165100000Y-65024000D03*
X134620000Y-80264000D03*
X162560000Y-65024000D03*
X137160000Y-80264000D03*
X160020000Y-65024000D03*
X139700000Y-80264000D03*
X157480000Y-65024000D03*
X142240000Y-80264000D03*
X154940000Y-65024000D03*
X144780000Y-80264000D03*
X152400000Y-65024000D03*
X147320000Y-80264000D03*
X149860000Y-65024000D03*
X149860000Y-80264000D03*
X147320000Y-65024000D03*
X152400000Y-80264000D03*
X144780000Y-65024000D03*
X154940000Y-80264000D03*
X142240000Y-65024000D03*
X157480000Y-80264000D03*
X139700000Y-65024000D03*
X160020000Y-80264000D03*
X137160000Y-65024000D03*
X162560000Y-80264000D03*
X134620000Y-65024000D03*
X165100000Y-80264000D03*
X132080000Y-65024000D03*
X167640000Y-80264000D03*
X129540000Y-65024000D03*
X170180000Y-80264000D03*
X127000000Y-65024000D03*
X172720000Y-80264000D03*
X124460000Y-65024000D03*
M02*
